<svg width="7" height="13" viewBox="0 0 7 13" fill="none" xmlns="http://www.w3.org/2000/svg">
<path fill-rule="evenodd" clip-rule="evenodd" d="M0.146894 12.8546C0.0528521 12.7608 0 12.6335 0 12.5006C0 12.3678 0.0528521 12.2404 0.146894 12.1466L5.79389 6.50064L0.146894 0.854643C0.0204218 0.72817 -0.0289712 0.543834 0.0173208 0.37107C0.0636128 0.198306 0.198557 0.0633621 0.371321 0.0170698C0.544085 -0.0292225 0.728422 0.0201702 0.854894 0.146643L6.85489 6.14664C6.94894 6.24045 7.00179 6.36782 7.00179 6.50064C7.00179 6.63347 6.94894 6.76084 6.85489 6.85464L0.854894 12.8546C0.76109 12.9487 0.633721 13.0015 0.500894 13.0015C0.368066 13.0015 0.240698 12.9487 0.146894 12.8546Z" fill="#000"/>
</svg>
